# xmcd CD database file
# Copyright (C) 1993-1998 Ti Kan
#
# Track frame offsets:
#	150
#	5487
#	12765
#	20845
#	30152
#	37094
#	39698
#	52412
#	63841
#	67031
#	78738
#	90443
#	101226
#	108953
#	116176
#	130110
#	141667
#	155731
#	164307
#	177013
#
# Disc length: 2602 seconds
#
# Revision: 1
# Processed by: cddbd v1.4b41PL1 Copyright (c) Steve Scherf et al.
# Submitted via: CDValet v3.31 - Copyright (c) 1997 Greg Leichner
#
DISCID=190a2814
DTITLE=Johnny Cash - The Louisiana Hayride - Anthologies Of Leg
DTITLE=ends - Disk 1
DYEAR=1900
DGENRE=
TTITLE0=Narration
TTITLE1=Hey Porter (Version 1)
TTITLE2=Luther Played The Boogie
TTITLE3=Narration
TTITLE4=Big River
TTITLE5=Narration
TTITLE6=Folsom Prison Blues
TTITLE7=I Walk The Line
TTITLE8=Narration
TTITLE9=Ring Of Fire
TTITLE10=Narration
TTITLE11=Give My Love To Rose
TTITLE12=Goodbye Little Darling
TTITLE13=Five Feet High and Rising/How High Is The Water Mama
TTITLE14=Rock Island Line
TTITLE15=I Still Miss Someone
TTITLE16=The Long Black Veil
TTITLE17=The Rebel - Johnny Yuma
TTITLE18=The One On The Right Is The One On The Left
TTITLE19=The Big Battle
EXTD=IMC Licensing
EXTT0=
EXTT1=
EXTT2=
EXTT3=
EXTT4=
EXTT5=
EXTT6=
EXTT7=
EXTT8=
EXTT9=
EXTT10=
EXTT11=
EXTT12=
EXTT13=
EXTT14=
EXTT15=
EXTT16=
EXTT17=
EXTT18=
EXTT19=
PLAYORDER=
